Coordinates
version=1
nRows=14
nColumns=24
inDegrees=yes

Units are S.I. units (second, meters, Newtons, ...)
Angles are in degrees.

endheader
time	pelvis_tilt	pelvis_list	pelvis_rotation	pelvis_tx	pelvis_ty	pelvis_tz	hip_flexion_r	hip_adduction_r	hip_rotation_r	knee_angle_r	ankle_angle_r	subtalar_angle_r	mtp_angle_r	hip_flexion_l	hip_adduction_l	hip_rotation_l	knee_angle_l	ankle_angle_l	subtalar_angle_l	mtp_angle_l	lumbar_extension	lumbar_bending	lumbar_rotation
      1.38300000	      2.26639280	      8.16740585	     -6.85904620	      0.21598529	      1.02028029	      0.25843458	     12.04502793	     -9.09995059	      1.90814916	    -65.76037583	      4.21654762	    -15.16968141	     -0.15264936	      5.67497565	     12.95790092	     -0.15236412	     -9.40365468	     -0.99681597	    -20.56875631	      6.20388197	     -4.35601338	    -10.21139962	      7.75617032
      1.38716667	      2.25513318	      8.03129042	     -6.71915673	      0.22107841	      1.02101229	      0.25822833	     12.54334482	     -8.89254354	      1.86921134	    -65.34637929	      4.46655613	    -15.14022514	     -0.18548609	      5.17787805	     12.86406572	      0.00164681	     -9.11650992	     -0.84003686	    -20.39841090	      6.16687014	     -4.41249683	    -10.06366544	      7.41227246
      1.39133333	      2.21657880	      7.90242480	     -6.58057625	      0.22618085	      1.02166339	      0.25803946	     13.06377922	     -8.68900003	      1.83140278	    -64.88991179	      4.72648581	    -15.15190091	     -0.19456511	      4.70194954	     12.77298834	      0.17002817	     -8.80522474	     -0.74492269	    -20.31084354	      6.15430708	     -4.41589867	     -9.92008442	      7.28749441
      1.39550000	      2.21460047	      7.76878145	     -6.42040971	      0.23120922	      1.02233634	      0.25781393	     13.52999769	     -8.49063009	      1.77363743	    -64.38287429	      4.94742917	    -15.11411685	     -0.21950746	      4.18182322	     12.68773171	      0.45097029	     -8.48626979	     -0.64993196	    -20.30797426	      6.12012481	     -4.51735956	     -9.78575380	      6.94304002
      1.39966667	      2.22057855	      7.65508191	     -6.26283857	      0.23629051	      1.02297761	      0.25758666	     13.97693494	     -8.32692828	      1.70066085	    -63.83176088	      5.16119550	    -15.09646309	     -0.25210512	      3.63976422	     12.62094808	      0.70075640	     -8.13265969	     -0.57241641	    -20.32861896	      6.07281023	     -4.57981528	     -9.66154699	      6.61219826
      1.40383333	      2.17688107	      7.52830955	     -6.09943559	      0.24134897	      1.02352422	      0.25739124	     14.46245271	     -8.13201826	      1.64034063	    -63.23123979	      5.38708276	    -15.09248052	     -0.26586505	      3.17246667	     12.52315351	      0.90144576	     -7.82157186	     -0.50016293	    -20.25990987	      6.05072270	     -4.59645211	     -9.52765222	      6.45326758
      1.40800000	      2.18320764	      7.41269868	     -5.92859345	      0.24638978	      1.02410110	      0.25716616	     14.88327959	     -7.96983250	      1.55437918	    -62.58790664	      5.54829180	    -15.08975109	     -0.29978187	      2.63464622	     12.44722873	      1.17616126	     -7.47457757	     -0.40471811	    -20.28149456	      5.99954955	     -4.67767202	     -9.40564623	      6.06033502
      1.41216667	      2.15210283	      7.30226431	     -5.75313233	      0.25142257	      1.02457165	      0.25696389	     15.33546591	     -7.80740600	      1.47191853	    -61.90929151	      5.72826439	    -15.08720257	     -0.33415774	      2.14966068	     12.36454009	      1.42159910	     -7.14758220	     -0.32762397	    -20.27045689	      5.94577511	     -4.71239415	     -9.29094228	      5.77254868
      1.41633333	      2.13869363	      7.19093661	     -5.57424235	      0.25644315	      1.02503456	      0.25675853	     15.75319110	     -7.64990699	      1.38153590	    -61.18453390	      5.89214285	    -15.09329740	     -0.36841799	      1.64924203	     12.27921154	      1.65706027	     -6.82458714	     -0.24519266	    -20.24292054	      5.89340592	     -4.77037656	     -9.17407628	      5.49081511
      1.42050000	      2.12213811	      7.09209049	     -5.39332086	      0.26145670	      1.02544377	      0.25656700	     16.16599488	     -7.50867423	      1.28964543	    -60.42513778	      6.04453109	    -15.10396286	     -0.40229827	      1.15587122	     12.20154825	      1.89032282	     -6.50412495	     -0.16376507	    -20.21099828	      5.84174157	     -4.82188742	     -9.07210804	      5.20586667
      1.42466667	      2.08704477	      6.98258596	     -5.20344718	      0.26645852	      1.02579998	      0.25637805	     16.57899831	     -7.35550727	      1.19201380	    -59.61731978	      6.20077187	    -15.10774603	     -0.42325684	      0.69552200	     12.10481876	      2.10102359	     -6.20873547	     -0.09155753	    -20.14326075	      5.80986573	     -4.85472803	     -8.96187343	      5.00053173
      1.42883333	      2.07713544	      6.88493466	     -5.01706002	      0.27145573	      1.02614272	      0.25618983	     16.95717310	     -7.22334149	      1.09121376	    -58.77672435	      6.29402394	    -15.15141135	     -0.46219382	      0.19394448	     12.02345894	      2.35528091	     -5.88204401	      0.00695819	    -20.13505206	      5.75433005	     -4.92046618	     -8.85861765	      4.61541130
      1.43300000	      2.04548424	      6.78765014	     -4.82183197	      0.27644012	      1.02642446	      0.25601258	     17.34162036	     -7.09253981	      0.98606999	    -57.89313349	      6.42832019	    -15.14223282	     -0.48214578	     -0.26192356	     11.93195605	      2.55785764	     -5.59400043	      0.07827432	    -20.06090118	      5.72544671	     -4.95534173	     -8.76088540	      4.42397463
      1.43716667	      2.02236039	      6.71025685	     -4.63464155	      0.28141939	      1.02664427	      0.25584528	     17.71646800	     -6.98832721	      0.88545229	    -56.99090582	      6.49805165	    -15.17862714	     -0.52100524	     -0.73943125	     11.86298895	      2.80422623	     -5.27652731	      0.17971044	    -20.05929016	      5.67142429	     -5.00402547	     -8.68156836	      4.03186166
